# xmcd CD database file
#
# Track frame offsets:
#	150
#	13394
#	27533
#	40449
#	54836
#	69245
#	82954
#	95277
#	108467
#	120964
#	133629
#	147798
#	160885
#	175418
#	187651
#	201243
#	215569
#	229356
#	241739
#	254912
#
# Disc length: 3572 seconds
#
# Revision: 3
# Processed by: cddbd v1.5.2PL0 Copyright (c) Steve Scherf et al.
# Submitted via: CDex 1.70beta2
#
DISCID=180df214
DTITLE=Arthur 'Big Boy' Crudup - Crudup's After Hours  -  CD 2
DYEAR=1996
DGENRE=Blues
TTITLE0=I Want My Lovin'
TTITLE1=Ethel Mae
TTITLE2=That's All Right
TTITLE3=Chicago Blues
TTITLE4=Crudups Vicksburg Blues
TTITLE5=Katie May
TTITLE6=Train Fare Blues
TTITLE7=You Got To Reap
TTITLE8=So Glad You're Mine
TTITLE9=I Don't Know It
TTITLE10=Cry Your Blues Away
TTITLE11=Hey Mama, Everything's All Right
TTITLE12=Just Like A Spider
TTITLE13=Gonna Be Some Changes Made
TTITLE14=Hoodoo Lady Blues
TTITLE15=Lonesome World To Me
TTITLE16=That's Why I'm Lonesome
TTITLE17=Roberta Blues
TTITLE18=Some Day
TTITLE19=Crudups After Hours
EXTD=YEAR: 1996
EXTT0=
EXTT1=
EXTT2=
EXTT3=
EXTT4=
EXTT5=
EXTT6=
EXTT7=
EXTT8=
EXTT9=
EXTT10=
EXTT11=
EXTT12=
EXTT13=
EXTT14=
EXTT15=
EXTT16=
EXTT17=
EXTT18=
EXTT19=
PLAYORDER=
